<svg width="24" height="24" viewBox="0 0 24 24" fill="none" xmlns="http://www.w3.org/2000/svg">
  <path d="M11.0819 3.12723C11.4293 2.32217 12.5708 2.32217 12.9182 3.12723L15.0982 8.17911C15.2453 8.52 15.5692 8.75132 15.9393 8.77993L21.53 9.21192C22.427 9.28123 22.7834 10.4073 22.0896 10.9801L17.8852 14.4514C17.5887 14.6962 17.4588 15.0894 17.5512 15.4627L18.8451 20.6911C19.0579 21.5509 18.1304 22.2424 17.3671 21.7931L12.5073 18.9321C12.1942 18.7478 11.8058 18.7478 11.4927 18.9321L6.63295 21.7931C5.86965 22.2424 4.94213 21.5509 5.15492 20.6911L6.44886 15.4627C6.54124 15.0894 6.41137 14.6962 6.11481 14.4514L1.91043 10.9801C1.21667 10.4073 1.57307 9.28123 2.47006 9.21192L8.06071 8.77993C8.43088 8.75132 8.75473 8.52 8.90183 8.17911L11.0819 3.12723Z" fill="#04B90B" />
</svg>

<svg width="24" height="24" viewBox="0 0 24 24" fill="none" xmlns="http://www.w3.org/2000/svg">
  <path d="M11.0819 3.12723C11.4293 2.32217 12.5708 2.32217 12.9182 3.12723L15.0982 8.17911C15.2453 8.52 15.5692 8.75132 15.9393 8.77993L21.53 9.21192C22.427 9.28123 22.7834 10.4073 22.0896 10.9801L17.8852 14.4514C17.5887 14.6962 17.4588 15.0894 17.5512 15.4627L18.8451 20.6911C19.0579 21.5509 18.1304 22.2424 17.3671 21.7931L12.5073 18.9321C12.1942 18.7478 11.8058 18.7478 11.4927 18.9321L6.63295 21.7931C5.86965 22.2424 4.94213 21.5509 5.15492 20.6911L6.44886 15.4627C6.54124 15.0894 6.41137 14.6962 6.11481 14.4514L1.91043 10.9801C1.21667 10.4073 1.57307 9.28123 2.47006 9.21192L8.06071 8.77993C8.43088 8.75132 8.75473 8.52 8.90183 8.17911L11.0819 3.12723Z" fill="#04B90B" />
</svg>

<svg width="24" height="24" viewBox="0 0 24 24" fill="none" xmlns="http://www.w3.org/2000/svg">
  <path d="M11.0819 3.12723C11.4293 2.32217 12.5708 2.32217 12.9182 3.12723L15.0982 8.17911C15.2453 8.52 15.5692 8.75132 15.9393 8.77993L21.53 9.21192C22.427 9.28123 22.7834 10.4073 22.0896 10.9801L17.8852 14.4514C17.5887 14.6962 17.4588 15.0894 17.5512 15.4627L18.8451 20.6911C19.0579 21.5509 18.1304 22.2424 17.3671 21.7931L12.5073 18.9321C12.1942 18.7478 11.8058 18.7478 11.4927 18.9321L6.63295 21.7931C5.86965 22.2424 4.94213 21.5509 5.15492 20.6911L6.44886 15.4627C6.54124 15.0894 6.41137 14.6962 6.11481 14.4514L1.91043 10.9801C1.21667 10.4073 1.57307 9.28123 2.47006 9.21192L8.06071 8.77993C8.43088 8.75132 8.75473 8.52 8.90183 8.17911L11.0819 3.12723Z" fill="#04B90B" />
</svg>

<svg width="24" height="24" viewBox="0 0 24 24" fill="none" xmlns="http://www.w3.org/2000/svg">
  <path d="M11.0819 3.12723C11.4293 2.32217 12.5708 2.32217 12.9182 3.12723L15.0982 8.17911C15.2453 8.52 15.5692 8.75132 15.9393 8.77993L21.53 9.21192C22.427 9.28123 22.7834 10.4073 22.0896 10.9801L17.8852 14.4514C17.5887 14.6962 17.4588 15.0894 17.5512 15.4627L18.8451 20.6911C19.0579 21.5509 18.1304 22.2424 17.3671 21.7931L12.5073 18.9321C12.1942 18.7478 11.8058 18.7478 11.4927 18.9321L6.63295 21.7931C5.86965 22.2424 4.94213 21.5509 5.15492 20.6911L6.44886 15.4627C6.54124 15.0894 6.41137 14.6962 6.11481 14.4514L1.91043 10.9801C1.21667 10.4073 1.57307 9.28123 2.47006 9.21192L8.06071 8.77993C8.43088 8.75132 8.75473 8.52 8.90183 8.17911L11.0819 3.12723Z" fill="#04B90B" />
</svg>

<svg width="24" height="24" viewBox="0 0 24 24" fill="none" xmlns="http://www.w3.org/2000/svg">
  <path d="M11.0819 3.12723C11.4293 2.32217 12.5708 2.32217 12.9182 3.12723L15.0982 8.17911C15.2453 8.52 15.5692 8.75132 15.9393 8.77993L21.53 9.21192C22.427 9.28123 22.7834 10.4073 22.0896 10.9801L17.8852 14.4514C17.5887 14.6962 17.4588 15.0894 17.5512 15.4627L18.8451 20.6911C19.0579 21.5509 18.1304 22.2424 17.3671 21.7931L12.5073 18.9321C12.1942 18.7478 11.8058 18.7478 11.4927 18.9321L6.63295 21.7931C5.86965 22.2424 4.94213 21.5509 5.15492 20.6911L6.44886 15.4627C6.54124 15.0894 6.41137 14.6962 6.11481 14.4514L1.91043 10.9801C1.21667 10.4073 1.57307 9.28123 2.47006 9.21192L8.06071 8.77993C8.43088 8.75132 8.75473 8.52 8.90183 8.17911L11.0819 3.12723Z" fill="#04B90B" />
</svg>